<svg id="Layer_1" data-name="Layer 1" xmlns="http://www.w3.org/2000/svg" viewBox="0 0 600.75 193.18"><defs><style>.cls-1{fill:#1b1b1b;}.cls-1,.cls-2,.cls-3{stroke:#231f20;stroke-miterlimit:10;stroke-width:4px;}.cls-2{fill:#e6e7e8;}.cls-3{fill:#e6322d;}.cls-4{fill:#231f20;}</style></defs><path class="cls-1" d="M65.55,38.42v67.65H37.32V38.42H15.7V11.16H87.11V38.42Z"/><path class="cls-2" d="M124.72,11.16v29q6.61-4.78,13.21-4.79,10,0,15.89,7.23t5.88,19.53v43.95h-26V69.43q0-4.46-.94-6c-.62-1-1.84-1.53-3.65-1.53q-4.38,0-4.38,6.46v37.69h-26V11.16Z"/><path class="cls-2" d="M246.13,75.61H206.7a18.24,18.24,0,0,1,.35-12.3h13.21q-1.39-7.73-8.69-7.72a9.43,9.43,0,0,0-7.93,4.14,17.34,17.34,0,0,0-3.06,10.6c0,4.5,1,8.13,3,10.92a9.08,9.08,0,0,0,7.75,4.17q3.9,0,7.51-3.9l14.81,17.8a36.35,36.35,0,0,1-23,8.14q-15.43,0-25.94-10.36t-10.5-25.66a34.8,34.8,0,0,1,10.61-25.72,35.55,35.55,0,0,1,26-10.5q15.08,0,25.34,10.25A34.33,34.33,0,0,1,246.4,70.75Q246.4,72.28,246.13,75.61Z"/><path class="cls-2" d="M286,36.75v69.32H260V36.75ZM273.11,5.81a12.72,12.72,0,0,1,9.14,3.72,11.82,11.82,0,0,1,3.86,8.79,11.76,11.76,0,0,1-3.65,8.9,14.31,14.31,0,0,1-18.71,0,11.76,11.76,0,0,1-3.65-8.9A11.82,11.82,0,0,1,264,9.53,12.75,12.75,0,0,1,273.11,5.81Z"/><path class="cls-2" d="M342.5,36.05V63.86a10.22,10.22,0,0,0-4.94-1.53q-7.08,0-7.09,10.85v32.89h-26V68.17q0-15,8.2-24t21.9-8.93A53.14,53.14,0,0,1,342.5,36.05Z"/><path class="cls-1" d="M353.28,11.16h28.23V67.55q0,6.6,2.12,8.79c1.41,1.46,4.21,2.19,8.38,2.19h1.46v27.54H386q-15.43,0-24.06-9t-8.62-25Z"/><path class="cls-2" d="M430.18,36.75v69.32h-26V36.75ZM417.25,5.81a12.72,12.72,0,0,1,9.14,3.72,11.79,11.79,0,0,1,3.86,8.79,11.72,11.72,0,0,1-3.65,8.9,14.3,14.3,0,0,1-18.7,0,11.76,11.76,0,0,1-3.65-8.9,11.82,11.82,0,0,1,3.86-8.79A12.72,12.72,0,0,1,417.25,5.81Z"/><path class="cls-3" d="M492.07,37.72V65.11q-5.49,0-7.55,2.06t-2.6,8.1q-1.82,20.08-15.58,28.36-7.29,4.32-20.72,4.31H442V80.41h1.18q6.26,0,8.93-2.61t3.1-9.14q.55-10.63,2-14.95A21.75,21.75,0,0,1,463,45.16q7.64-7.44,21.2-7.44Z"/><path class="cls-2" d="M526.84,11.16V37.72h11.68V65.18H526.84q0,8.28,2.6,11.41T539,79.72V107c-1.35,0-2.35.07-3,.07a35.42,35.42,0,0,1-16.65-4.1,33.72,33.72,0,0,1-12.55-11.13q-6-9-6-23.78V11.16Z"/><path class="cls-1" d="M573.7,74.92a15.9,15.9,0,0,1,11.72,4.94,16.08,16.08,0,0,1,4.9,11.75,15.55,15.55,0,0,1-4.87,11.57,16.16,16.16,0,0,1-11.75,4.76,16.55,16.55,0,0,1-11.61-28.19A15.77,15.77,0,0,1,573.7,74.92Z"/><path class="cls-4" d="M88.56,123.67h7.59l-14.21,39H76.31L66.17,135,56,162.7H50.45l-14.2-39h7.59l9.43,25.75,9.43-25.75h7l9.43,25.75Z"/><path class="cls-4" d="M124.93,131.26a7.55,7.55,0,0,1,7.47,7.48v24h-7.1v-24a.33.33,0,0,0-.37-.38H108a.34.34,0,0,0-.38.38v24h-7.1V121h7.1v10.3Z"/><path class="cls-4" d="M161,131.26a7.49,7.49,0,0,1,7.48,7.48v24H144.06a7.49,7.49,0,0,1-7.48-7.48V143.4H161.4v-4.66a.33.33,0,0,0-.38-.38H136.58v-7.1Zm.38,24.34v-5H143.68v4.66a.33.33,0,0,0,.38.38Z"/><path class="cls-4" d="M193.6,138.36H181.35v16.86a.33.33,0,0,0,.38.38H193.6v7.1H181.73a7.44,7.44,0,0,1-7.48-7.48V121h7.1v10.3H193.6Z"/><path class="cls-4" d="M229.58,138.74v1.36h-7.1v-1.36a.33.33,0,0,0-.38-.38h-17a.34.34,0,0,0-.38.38v4.34c0,.21.13.32.38.32h17a7.44,7.44,0,0,1,7.48,7.48v4.34a7.44,7.44,0,0,1-7.48,7.48h-17a7.51,7.51,0,0,1-7.48-7.48v-1.36h7.1v1.36a.34.34,0,0,0,.38.38h17a.33.33,0,0,0,.38-.38v-4.34c0-.21-.12-.32-.38-.32h-17a7.51,7.51,0,0,1-7.48-7.48v-4.34a7.51,7.51,0,0,1,7.48-7.48h17a7.44,7.44,0,0,1,7.48,7.48Z"/><path class="cls-4" d="M271.15,138.36H258.91v16.86a.33.33,0,0,0,.38.38h11.86v7.1H259.29a7.44,7.44,0,0,1-7.48-7.48V121h7.1v10.3h12.24Z"/><path class="cls-4" d="M300,131.26a7.24,7.24,0,0,1,5.26,2.2,7.15,7.15,0,0,1,2.22,5.28v24h-7.1v-24a.34.34,0,0,0-.38-.38H283a.33.33,0,0,0-.37.38v24h-7.1V121h7.1v10.3Z"/><path class="cls-4" d="M336,131.26a7.49,7.49,0,0,1,7.48,7.48v11.82H318.69v4.66a.33.33,0,0,0,.38.38h24.44v7.1H319.07a7.49,7.49,0,0,1-7.48-7.48V138.74a7.49,7.49,0,0,1,7.48-7.48ZM318.69,143.4h17.72v-4.66a.34.34,0,0,0-.38-.38h-17a.33.33,0,0,0-.38.38Z"/><path class="cls-4" d="M403.67,131.21v7.64a6.38,6.38,0,0,1-.54,2.76,7.26,7.26,0,0,1,2.11,5.15v8.4A7.22,7.22,0,0,1,403,160.5a7.33,7.33,0,0,1-5.36,2.2H366.22v-39h29.92a7.3,7.3,0,0,1,5.31,2.2A7.22,7.22,0,0,1,403.67,131.21Zm-7.53-.38H373.75a.33.33,0,0,0-.37.38v7.64a.33.33,0,0,0,.37.38h22.39c.22,0,.32-.13.32-.38v-7.64C396.46,131,396.36,130.83,396.14,130.83Zm1.9,24.33v-8.4c0-.21-.13-.32-.38-.32H373.75c-.25,0-.37.11-.37.32v8.4c0,.26.12.38.37.38h23.91A.33.33,0,0,0,398,155.16Z"/><path class="cls-4" d="M435.32,131.26a7.49,7.49,0,0,1,7.48,7.48v11.82H418v4.66a.34.34,0,0,0,.38.38H442.8v7.1H418.36a7.51,7.51,0,0,1-7.48-7.48V138.74a7.51,7.51,0,0,1,7.48-7.48ZM418,143.4H435.7v-4.66a.33.33,0,0,0-.38-.38h-17a.34.34,0,0,0-.38.38Z"/><path class="cls-4" d="M479.06,138.74v1.36H472v-1.36a.33.33,0,0,0-.37-.38h-17a.34.34,0,0,0-.38.38v4.34c0,.21.13.32.38.32h17a7.17,7.17,0,0,1,5.31,2.2,7.25,7.25,0,0,1,2.16,5.28v4.34a7.25,7.25,0,0,1-2.16,5.28,7.17,7.17,0,0,1-5.31,2.2h-17a7.51,7.51,0,0,1-7.48-7.48v-1.36h7.1v1.36a.34.34,0,0,0,.38.38h17a.33.33,0,0,0,.37-.38v-4.34c0-.21-.12-.32-.37-.32h-17a7.51,7.51,0,0,1-7.48-7.48v-4.34a7.51,7.51,0,0,1,7.48-7.48h17a7.17,7.17,0,0,1,5.31,2.2A7.25,7.25,0,0,1,479.06,138.74Z"/><path class="cls-4" d="M503.94,138.36H491.69v16.86a.34.34,0,0,0,.38.38h11.87v7.1H492.07a7.46,7.46,0,0,1-7.48-7.48V121h7.1v10.3h12.25Z"/><path class="cls-4" d="M507.09,123.67h26.34a7.46,7.46,0,0,1,7.48,7.48v9.49a7.26,7.26,0,0,1-2.17,5.28,7.17,7.17,0,0,1-5.31,2.2H520.09a.29.29,0,0,0-.32.32v3.63h-7.16v-3.63a7.51,7.51,0,0,1,7.48-7.48h13.34c.25,0,.38-.1.38-.32v-9.49a.34.34,0,0,0-.38-.38H507.09Zm12.68,39h-7.16v-7.1h7.16Z"/></svg>